<?xml version="1.0" encoding="UTF-8" standalone="no" ?>
<!DOCTYPE svg PUBLIC "-//W3C//DTD SVG 1.1//EN" "http://www.w3.org/Graphics/SVG/1.1/DTD/svg11.dtd">
<svg xmlns="http://www.w3.org/2000/svg" xmlns:xlink="http://www.w3.org/1999/xlink" version="1.1" width="1080" height="1080" viewBox="0 0 1080 1080" xml:space="preserve">
<desc>Created with Fabric.js 5.2.4</desc>
<defs>
</defs>
<g transform="matrix(1 0 0 1 540 540)" id="edf1a44c-d46f-4541-9050-d2d0d4db0c7a"  >
</g>
<g transform="matrix(1 0 0 1 540 540)" id="38aa2dd9-bc4a-4567-bfd2-eda5a045232d"  >
<rect style="stroke: none; stroke-width: 1; stroke-dasharray: none; stroke-linecap: butt; stroke-dashoffset: 0; stroke-linejoin: miter; stroke-miterlimit: 4; fill: rgb(18,18,18); fill-rule: nonzero; opacity: 1; visibility: hidden;" vector-effect="non-scaling-stroke"  x="-540" y="-540" rx="0" ry="0" width="1080" height="1080" />
</g>
<g transform="matrix(1 0 0 1 540 540)"  >
<rect style="stroke: none; stroke-width: 1; stroke-dasharray: none; stroke-linecap: butt; stroke-dashoffset: 0; stroke-linejoin: miter; stroke-miterlimit: 4; fill: rgb(255,255,255); fill-rule: nonzero; opacity: 1; visibility: hidden;" vector-effect="non-scaling-stroke"  x="-540" y="-540" rx="0" ry="0" width="1080" height="1080" />
</g>
<g transform="matrix(1 0 0 1 540 540)"  >
<rect style="stroke: none; stroke-width: 1; stroke-dasharray: none; stroke-linecap: butt; stroke-dashoffset: 0; stroke-linejoin: miter; stroke-miterlimit: 4; fill: rgb(255,255,255); fill-rule: nonzero; opacity: 1; visibility: hidden;" vector-effect="non-scaling-stroke"  x="-540" y="-540" rx="0" ry="0" width="1080" height="1080" />
</g>
<g transform="matrix(1 0 0 1 540 540)"  >
<path style="stroke: none; stroke-width: 1; stroke-dasharray: none; stroke-linecap: butt; stroke-dashoffset: 0; stroke-linejoin: miter; stroke-miterlimit: 4; fill: rgb(255,255,255); fill-rule: nonzero; opacity: 1;" vector-effect="non-scaling-stroke"  transform=" translate(-256, -256)" d="M 256 49.471 C 323.266 49.471 331.233 49.727999999999994 357.8 50.94 C 382.362 52.061 395.7 56.164 404.57800000000003 59.614 C 415.5200906363828 63.65251993978404 425.4179817020639 70.09199232578008 433.54400000000004 78.45900000000002 C 441.91100767421995 86.58501829793616 448.350480060216 96.48290936361727 452.389 107.42500000000001 C 455.839 116.302 459.943 129.64100000000002 461.063 154.203 C 462.275 180.768 462.532 188.735 462.532 256.003 C 462.532 323.27099999999996 462.275 331.236 461.063 357.803 C 459.942 382.365 455.83799999999997 395.703 452.389 404.581 C 443.9138805997487 426.5514191866478 426.54841918664783 443.9168805997487 404.57800000000003 452.392 C 395.701 455.842 382.362 459.94599999999997 357.8 461.066 C 331.24 462.27799999999996 323.273 462.53499999999997 256 462.53499999999997 C 188.72699999999998 462.53499999999997 180.763 462.27799999999996 154.2 461.066 C 129.63799999999998 459.945 116.29999999999998 455.84099999999995 107.422 452.392 C 96.47989405146808 448.353510567545 86.58199661225049 441.91403403498765 78.45599999999999 433.547 C 70.08901868587357 425.4209600169971 63.64955044627406 415.5230753245992 59.61100000000001 404.581 C 56.16099999999999 395.704 52.05699999999999 382.365 50.93699999999999 357.803 C 49.72499999999999 331.239 49.46799999999999 323.271 49.46799999999999 256.003 C 49.46799999999999 188.73499999999996 49.72499999999999 180.76999999999998 50.93699999999999 154.20299999999997 C 52.05799999999999 129.64099999999996 56.16099999999999 116.30299999999997 59.61099999999999 107.42499999999998 C 63.64997059877073 96.48236406542311 70.09014446688045 86.5841035232926 78.45799999999998 78.45800000000001 C 86.58403998300287 70.09101868587359 96.48192467540082 63.65155044627407 107.42399999999995 59.61300000000002 C 116.301 56.163 129.64000000000001 52.059 154.202 50.939 C 180.767 49.727 188.73399999999998 49.47 256.002 49.47 M 256.002 4.079000000000001 C 187.584 4.079000000000001 179.002 4.369000000000001 152.13600000000002 5.595000000000001 C 125.32100000000003 6.819000000000001 107.00900000000001 11.077000000000002 90.98500000000001 17.305 C 74.17559869787777 23.630631209149353 58.94832122018458 33.54678991980222 46.36499999999995 46.36200000000006 C 33.54690187635182 58.944532251645064 23.627974318325506 74.17186917368653 17.30000000000002 90.98200000000001 C 11.077 107.007 6.819 125.319 5.6 152.134 C 4.369 179 4.079 187.582 4.079 256 C 4.079 324.418 4.369 333 5.6 359.866 C 6.824 386.681 11.082 404.993 17.310000000000002 421.017 C 23.63566002934723 437.8263867140814 33.55181491711514 453.05365832134316 46.367000000000004 465.637 C 58.95028030213689 478.452260076035 74.17756952113456 488.3684264327453 90.987 494.694 C 107.012 500.922 125.324 505.18 152.138 506.404 C 179.008 507.63 187.587 507.92 256.004 507.92 C 324.42100000000005 507.92 333.004 507.63 359.87 506.404 C 386.685 505.18 404.997 500.92199999999997 421.021 494.694 C 454.8597426447393 481.6064685112201 481.61046851122006 454.85574264473934 494.69800000000004 421.01700000000005 C 500.92600000000004 404.992 505.184 386.68 506.408 359.866 C 507.634 332.996 507.92400000000004 324.417 507.92400000000004 256 C 507.92400000000004 187.58300000000003 507.634 179 506.408 152.13400000000001 C 505.184 125.31900000000002 500.926 107.007 494.69800000000004 90.983 C 488.3724264327453 74.17356952113457 478.456260076035 58.94628030213688 465.641 46.363 C 453.0574221548888 33.54523497241329 437.82903619300413 23.62697351060539 421.0179999999999 17.299999999999976 C 404.993 11.077 386.681 6.819 359.866 5.6 C 333 4.369 324.418 4.079 256 4.079 L 256 4.079 Z" stroke-linecap="round" />
</g>
<g transform="matrix(1 0 0 1 540 540)"  >
<path style="stroke: none; stroke-width: 1; stroke-dasharray: none; stroke-linecap: butt; stroke-dashoffset: 0; stroke-linejoin: miter; stroke-miterlimit: 4; fill: rgb(255,255,255); fill-rule: nonzero; opacity: 1;" vector-effect="non-scaling-stroke"  transform=" translate(-256, -256)" d="M 256 126.635 C 184.55368333813942 126.635 126.63499999999999 184.55368333813942 126.63499999999999 256 C 126.63499999999999 327.4463166618606 184.55368333813942 385.365 256 385.365 C 327.4463166618606 385.365 385.365 327.4463166618606 385.365 256 C 385.365 184.55368333813942 327.4463166618606 126.63499999999999 256 126.63499999999999 Z M 256 339.973 C 209.62312288123275 339.9724477168004 172.0276318149427 302.37621046186655 172.0280000026463 255.9993333412724 C 172.02836819034994 209.6224562206782 209.62445620767346 172.0268159144083 256.0013333293638 172.02700000661588 C 302.37821045105414 172.02718409882345 339.97399999671154 209.62312287794433 339.974 256 C 339.97344771990066 302.37716905751773 302.3771690608061 339.9730000032884 256 339.973 Z" stroke-linecap="round" />
</g>
<g transform="matrix(1 0 0 1 674.47 405.52)"  >
<circle style="stroke: none; stroke-width: 1; stroke-dasharray: none; stroke-linecap: butt; stroke-dashoffset: 0; stroke-linejoin: miter; stroke-miterlimit: 4; fill: rgb(255,255,255); fill-rule: nonzero; opacity: 1;" vector-effect="non-scaling-stroke"  cx="0" cy="0" r="30.23" />
</g>
</svg>